Coordinates
version=1
nRows=21
nColumns=12
inDegrees=yes

Units are S.I. units (second, meters, Newtons, ...)
Angles are in degrees

endheader
time	SC_y	SC_z	SC_x	AC_y	AC_z	AC_x	GH_y	GH_z	GH_yy	EL_x	PS_y
       0.0               -27.9          31.62          81.42          58.56         -5.136          19.49         -72.12          8.674         -120.2          37.04          65.01
   0.03466               -27.9          31.62          81.41          58.56         -5.134          19.48         -72.11          8.683         -120.1          37.03          65.01
   0.06931               -27.9          31.62           81.4          58.56         -5.132          19.48          -72.1          8.692         -120.1          37.03           65.0
     0.104               -27.9          31.62          81.38          58.56         -5.131          19.47         -72.08          8.703         -120.1          37.03           65.0
    0.1386               -27.9          31.62          81.37          58.56         -5.129          19.47         -72.07          8.714         -120.1          37.02          64.99
    0.1733               -27.9          31.62          81.36          58.56         -5.127          19.46         -72.05          8.725         -120.1          37.02          64.99
    0.2079               -27.9          31.62          81.34          58.56         -5.125          19.45         -72.04          8.738         -120.1          37.01          64.98
    0.2426               -27.9          31.62          81.33          58.56         -5.122          19.44         -72.02          8.751         -120.1          37.01          64.97
    0.2772               -27.9          31.62          81.31          58.56          -5.12          19.43          -72.0          8.766         -120.1           37.0          64.97
    0.3119               -27.9          31.62           81.3          58.56         -5.117          19.43         -71.98          8.781         -120.1           37.0          64.96
    0.3466               -27.9          31.62          81.28          58.56         -5.114          19.42         -71.96          8.797         -120.1          36.99          64.95
    0.3812               -27.9          31.62          81.26          58.56         -5.111           19.4         -71.93          8.815         -120.1          36.99          64.94
    0.4159               -27.9          31.62          81.24          58.56         -5.108          19.39         -71.91          8.834         -120.0          36.98          64.93
    0.4505              -27.91          31.62          81.21          58.56         -5.104          19.38         -71.88          8.855         -120.0          36.97          64.92
    0.4852              -27.91          31.62          81.19          58.56         -5.101          19.37         -71.85          8.877         -120.0          36.97          64.91
    0.5198              -27.91          31.62          81.16          58.56         -5.096          19.35         -71.81          8.902         -120.0          36.96           64.9
    0.5545              -27.91          31.62          81.13          58.56         -5.092          19.34         -71.78          8.928         -120.0          36.95          64.88
    0.5892              -27.91          31.62           81.1          58.56         -5.087          19.32         -71.74          8.957         -120.0          36.94          64.87
    0.6238              -27.91          31.62          81.06          58.56         -5.082           19.3          -71.7          8.988         -119.9          36.93          64.85
    0.6585              -27.91          31.62          81.02          58.56         -5.076          19.28         -71.65          9.022         -119.9          36.92          64.83
    0.6931              -27.91          31.63          80.98          58.56         -5.069          19.26          -71.6           9.06         -119.9           36.9          64.81
